<svg xmlns="http://www.w3.org/2000/svg" style="position:absolute;width:0;height:0;" id="svg-sprite"><symbol id="icon-arrow-up-on-square-stack" viewBox="0 0 24 24" xmlns="http://www.w3.org/2000/svg" fill="none" stroke="currentColor" stroke-width="1.5" class="size-6"><path stroke-linecap="round" stroke-linejoin="round" d="M7.5 7.5h-.75A2.25 2.25 0 0 0 4.5 9.75v7.5a2.25 2.25 0 0 0 2.25 2.25h7.5a2.25 2.25 0 0 0 2.25-2.25v-7.5a2.25 2.25 0 0 0-2.25-2.25h-.75m0-3-3-3m0 0-3 3m3-3v11.25m6-2.25h.75a2.25 2.25 0 0 1 2.25 2.25v7.5a2.25 2.25 0 0 1-2.25 2.25h-7.5a2.25 2.25 0 0 1-2.25-2.25v-.75"/></symbol><symbol id="icon-arrow-up-tray" viewBox="0 0 24 24" xmlns="http://www.w3.org/2000/svg" fill="none" stroke="currentColor" stroke-width="1.5" class="size-6"><path stroke-linecap="round" stroke-linejoin="round" d="M3 16.5v2.25A2.25 2.25 0 0 0 5.25 21h13.5A2.25 2.25 0 0 0 21 18.75V16.5m-13.5-9L12 3m0 0 4.5 4.5M12 3v13.5"/></symbol><symbol id="icon-arrow-uturn-left" viewBox="0 0 24 24" xmlns="http://www.w3.org/2000/svg" fill="none" stroke="currentColor" stroke-width="1.5" class="size-6"><path stroke-linecap="round" stroke-linejoin="round" d="M9 15 3 9m0 0 6-6M3 9h12a6 6 0 0 1 0 12h-3"/></symbol><symbol id="icon-at-symbol" viewBox="0 0 24 24" xmlns="http://www.w3.org/2000/svg" fill="none" stroke="currentColor" stroke-width="1.5" class="size-6"><path stroke-linecap="round" stroke-linejoin="round" d="M16.5 12a4.5 4.5 0 1 1-9 0 4.5 4.5 0 0 1 9 0m0 0c0 1.657 1.007 3 2.25 3S21 13.657 21 12a9 9 0 1 0-2.636 6.364M16.5 12V8.25"/></symbol><symbol id="icon-bars-3" viewBox="0 0 24 24" xmlns="http://www.w3.org/2000/svg" fill="none" stroke="currentColor" stroke-width="1.5" class="size-6"><path stroke-linecap="round" stroke-linejoin="round" d="M3.75 6.75h16.5M3.75 12h16.5m-16.5 5.25h16.5"/></symbol><symbol id="icon-bell-alert" viewBox="0 0 24 24" xmlns="http://www.w3.org/2000/svg" fill="none" stroke="currentColor" stroke-width="1.5" class="size-6"><path stroke-linecap="round" stroke-linejoin="round" d="M14.857 17.082a24 24 0 0 0 5.454-1.31A8.97 8.97 0 0 1 18 9.75V9A6 6 0 0 0 6 9v.75a8.97 8.97 0 0 1-2.312 6.022c1.733.64 3.56 1.085 5.455 1.31m5.714 0a24.3 24.3 0 0 1-5.714 0m5.714 0a3 3 0 1 1-5.714 0M3.124 7.5A8.97 8.97 0 0 1 5.292 3m13.416 0a8.97 8.97 0 0 1 2.168 4.5"/></symbol><symbol id="icon-bug-ant" viewBox="0 0 24 24" xmlns="http://www.w3.org/2000/svg" fill="none" stroke="currentColor" stroke-width="1.5" class="size-6"><path stroke-linecap="round" stroke-linejoin="round" d="M12 12.75q1.724 0 3.383.237c1.037.146 1.866.966 1.866 2.013 0 3.728-2.35 6.75-5.25 6.75S6.75 18.728 6.75 15c0-1.046.83-1.867 1.866-2.013A24 24 0 0 1 12 12.75m0 0c2.883 0 5.647.508 8.207 1.44a24 24 0 0 1-1.152 6.06M12 12.75c-2.883 0-5.647.508-8.208 1.44a24 24 0 0 0 1.153 6.06M12 12.75a2.25 2.25 0 0 0 2.248-2.354M12 12.75a2.25 2.25 0 0 1-2.248-2.354M12 8.25q1.494-.001 2.922-.236c.403-.066.74-.358.795-.762a3.8 3.8 0 0 0-.399-2.25M12 8.25q-1.493-.001-2.922-.236c-.402-.066-.74-.358-.795-.762a3.73 3.73 0 0 1 .4-2.253M12 8.25a2.25 2.25 0 0 0-2.248 2.146M12 8.25a2.25 2.25 0 0 1 2.248 2.146M8.683 5a6 6 0 0 1-1.155-1.002c.07-.63.27-1.222.574-1.747M8.683 5a3.75 3.75 0 0 1 6.635 0m0 0c.427-.283.815-.62 1.155-.999a4.5 4.5 0 0 0-.575-1.752M4.921 6a24 24 0 0 0-.392 3.314 24 24 0 0 0 5.223 1.082M19.08 6q.308 1.622.392 3.314a24 24 0 0 1-5.223 1.082"/></symbol><symbol id="icon-calendar-days" viewBox="0 0 24 24" xmlns="http://www.w3.org/2000/svg" fill="none" stroke="currentColor" stroke-width="1.5" class="size-6"><path stroke-linecap="round" stroke-linejoin="round" d="M6.75 3v2.25M17.25 3v2.25M3 18.75V7.5a2.25 2.25 0 0 1 2.25-2.25h13.5A2.25 2.25 0 0 1 21 7.5v11.25m-18 0A2.25 2.25 0 0 0 5.25 21h13.5A2.25 2.25 0 0 0 21 18.75m-18 0v-7.5A2.25 2.25 0 0 1 5.25 9h13.5A2.25 2.25 0 0 1 21 11.25v7.5m-9-6h.008v.008H12zM12 15h.008v.008H12zm0 2.25h.008v.008H12zM9.75 15h.008v.008H9.75zm0 2.25h.008v.008H9.75zM7.5 15h.008v.008H7.5zm0 2.25h.008v.008H7.5zm6.75-4.5h.008v.008h-.008zm0 2.25h.008v.008h-.008zm0 2.25h.008v.008h-.008zm2.25-4.5h.008v.008H16.5zm0 2.25h.008v.008H16.5z"/></symbol><symbol id="icon-camera" viewBox="0 0 24 24" xmlns="http://www.w3.org/2000/svg" fill="none" stroke="currentColor" stroke-width="1.5" class="size-6"><path stroke-linecap="round" stroke-linejoin="round" d="M6.827 6.175A2.31 2.31 0 0 1 5.186 7.23q-.57.08-1.134.175C2.999 7.58 2.25 8.507 2.25 9.574V18a2.25 2.25 0 0 0 2.25 2.25h15A2.25 2.25 0 0 0 21.75 18V9.574c0-1.067-.75-1.994-1.802-2.169a48 48 0 0 0-1.134-.175 2.31 2.31 0 0 1-1.64-1.055l-.822-1.316a2.19 2.19 0 0 0-1.736-1.039 49 49 0 0 0-5.232 0 2.19 2.19 0 0 0-1.736 1.039z"/><path stroke-linecap="round" stroke-linejoin="round" d="M16.5 12.75a4.5 4.5 0 1 1-9 0 4.5 4.5 0 0 1 9 0m2.25-2.25h.008v.008h-.008z"/></symbol><symbol id="icon-check-badge" viewBox="0 0 24 24" xmlns="http://www.w3.org/2000/svg" fill="none" stroke="currentColor" stroke-width="1.5" class="size-6"><path stroke-linecap="round" stroke-linejoin="round" d="M9 12.75 11.25 15 15 9.75M21 12c0 1.268-.63 2.39-1.593 3.068a3.75 3.75 0 0 1-1.043 3.296 3.75 3.75 0 0 1-3.296 1.043A3.75 3.75 0 0 1 12 21c-1.268 0-2.39-.63-3.068-1.593a3.75 3.75 0 0 1-3.296-1.043 3.75 3.75 0 0 1-1.043-3.296A3.75 3.75 0 0 1 3 12c0-1.268.63-2.39 1.593-3.068a3.75 3.75 0 0 1 1.043-3.296 3.75 3.75 0 0 1 3.296-1.043A3.75 3.75 0 0 1 12 3c1.268 0 2.39.63 3.068 1.593a3.75 3.75 0 0 1 3.296 1.043 3.75 3.75 0 0 1 1.043 3.296A3.75 3.75 0 0 1 21 12"/></symbol><symbol id="icon-bell" viewBox="0 0 24 24" xmlns="http://www.w3.org/2000/svg" fill="none" stroke="currentColor" stroke-width="1.5" class="size-6"><path stroke-linecap="round" stroke-linejoin="round" d="M14.857 17.082a24 24 0 0 0 5.454-1.31A8.97 8.97 0 0 1 18 9.75V9A6 6 0 0 0 6 9v.75a8.97 8.97 0 0 1-2.312 6.022c1.733.64 3.56 1.085 5.455 1.31m5.714 0a24.3 24.3 0 0 1-5.714 0m5.714 0a3 3 0 1 1-5.714 0"/></symbol><symbol id="icon-check" viewBox="0 0 24 24" xmlns="http://www.w3.org/2000/svg" fill="none" stroke="currentColor" stroke-width="1.5" class="size-6"><path stroke-linecap="round" stroke-linejoin="round" d="m4.5 12.75 6 6 9-13.5"/></symbol><symbol id="icon-cog-6-tooth" viewBox="0 0 24 24" xmlns="http://www.w3.org/2000/svg" fill="none" stroke="currentColor" stroke-width="1.5" class="size-6"><path stroke-linecap="round" stroke-linejoin="round" d="M9.594 3.94c.09-.542.56-.94 1.11-.94h2.593c.55 0 1.02.398 1.11.94l.213 1.281c.063.374.313.686.645.87q.11.06.22.127c.325.196.72.257 1.075.124l1.217-.456a1.125 1.125 0 0 1 1.37.49l1.296 2.247a1.125 1.125 0 0 1-.26 1.431l-1.003.827c-.293.241-.438.613-.43.992a8 8 0 0 1 0 .255c-.008.378.137.75.43.991l1.004.827c.424.35.534.955.26 1.43l-1.298 2.247a1.125 1.125 0 0 1-1.369.491l-1.217-.456c-.355-.133-.75-.072-1.076.124a7 7 0 0 1-.22.128c-.331.183-.581.495-.644.869l-.213 1.281c-.09.543-.56.94-1.11.94h-2.594c-.55 0-1.019-.398-1.11-.94l-.213-1.281c-.062-.374-.312-.686-.644-.87a7 7 0 0 1-.22-.127c-.325-.196-.72-.257-1.076-.124l-1.217.456a1.125 1.125 0 0 1-1.369-.49l-1.297-2.247a1.125 1.125 0 0 1 .26-1.431l1.004-.827c.292-.24.437-.613.43-.991a7 7 0 0 1 0-.255c.007-.38-.138-.751-.43-.992l-1.004-.827a1.125 1.125 0 0 1-.26-1.43l1.297-2.247a1.125 1.125 0 0 1 1.37-.491l1.216.456c.356.133.751.072 1.076-.124q.108-.066.22-.128c.332-.183.582-.495.644-.869z"/><path stroke-linecap="round" stroke-linejoin="round" d="M15 12a3 3 0 1 1-6 0 3 3 0 0 1 6 0"/></symbol><symbol id="icon-clock" viewBox="0 0 24 24" xmlns="http://www.w3.org/2000/svg" fill="none" stroke="currentColor" stroke-width="1.5" class="size-6"><path stroke-linecap="round" stroke-linejoin="round" d="M12 6v6h4.5m4.5 0a9 9 0 1 1-18 0 9 9 0 0 1 18 0"/></symbol><symbol id="icon-calendar" viewBox="0 0 24 24" xmlns="http://www.w3.org/2000/svg" fill="none" stroke="currentColor" stroke-width="1.5" class="size-6"><path stroke-linecap="round" stroke-linejoin="round" d="M6.75 3v2.25M17.25 3v2.25M3 18.75V7.5a2.25 2.25 0 0 1 2.25-2.25h13.5A2.25 2.25 0 0 1 21 7.5v11.25m-18 0A2.25 2.25 0 0 0 5.25 21h13.5A2.25 2.25 0 0 0 21 18.75m-18 0v-7.5A2.25 2.25 0 0 1 5.25 9h13.5A2.25 2.25 0 0 1 21 11.25v7.5"/></symbol><symbol id="icon-check-circle" viewBox="0 0 24 24" xmlns="http://www.w3.org/2000/svg" fill="none" stroke="currentColor" stroke-width="1.5" class="size-6"><path stroke-linecap="round" stroke-linejoin="round" d="M9 12.75 11.25 15 15 9.75M21 12a9 9 0 1 1-18 0 9 9 0 0 1 18 0"/></symbol><symbol id="icon-credit-card" viewBox="0 0 24 24" xmlns="http://www.w3.org/2000/svg" fill="none" stroke="currentColor" stroke-width="1.5" class="size-6"><path stroke-linecap="round" stroke-linejoin="round" d="M2.25 8.25h19.5M2.25 9h19.5m-16.5 5.25h6m-6 2.25h3m-3.75 3h15a2.25 2.25 0 0 0 2.25-2.25V6.75A2.25 2.25 0 0 0 19.5 4.5h-15a2.25 2.25 0 0 0-2.25 2.25v10.5A2.25 2.25 0 0 0 4.5 19.5"/></symbol><symbol id="icon-currency-euro" viewBox="0 0 24 24" xmlns="http://www.w3.org/2000/svg" fill="none" stroke="currentColor" stroke-width="1.5" class="size-6"><path stroke-linecap="round" stroke-linejoin="round" d="M14.25 7.756a4.5 4.5 0 1 0 0 8.488M7.5 10.5h5.25m-5.25 3h5.25M21 12a9 9 0 1 1-18 0 9 9 0 0 1 18 0"/></symbol><symbol id="icon-device-phone-mobile" viewBox="0 0 24 24" xmlns="http://www.w3.org/2000/svg" fill="none" stroke="currentColor" stroke-width="1.5" class="size-6"><path stroke-linecap="round" stroke-linejoin="round" d="M10.5 1.5H8.25A2.25 2.25 0 0 0 6 3.75v16.5a2.25 2.25 0 0 0 2.25 2.25h7.5A2.25 2.25 0 0 0 18 20.25V3.75a2.25 2.25 0 0 0-2.25-2.25H13.5m-3 0V3h3V1.5m-3 0h3m-3 18.75h3"/></symbol><symbol id="icon-envelope" viewBox="0 0 24 24" xmlns="http://www.w3.org/2000/svg" fill="none" stroke="currentColor" stroke-width="1.5" class="size-6"><path stroke-linecap="round" stroke-linejoin="round" d="M21.75 6.75v10.5a2.25 2.25 0 0 1-2.25 2.25h-15a2.25 2.25 0 0 1-2.25-2.25V6.75m19.5 0A2.25 2.25 0 0 0 19.5 4.5h-15a2.25 2.25 0 0 0-2.25 2.25m19.5 0v.243a2.25 2.25 0 0 1-1.07 1.916l-7.5 4.615a2.25 2.25 0 0 1-2.36 0L3.32 8.91a2.25 2.25 0 0 1-1.07-1.916V6.75"/></symbol><symbol id="icon-exclamation-circle" viewBox="0 0 24 24" xmlns="http://www.w3.org/2000/svg" fill="none" stroke="currentColor" stroke-width="1.5" class="size-6"><path stroke-linecap="round" stroke-linejoin="round" d="M12 9v3.75m9-.75a9 9 0 1 1-18 0 9 9 0 0 1 18 0m-9 3.75h.008v.008H12z"/></symbol><symbol id="icon-exclamation-triangle" viewBox="0 0 24 24" xmlns="http://www.w3.org/2000/svg" fill="none" stroke="currentColor" stroke-width="1.5" class="size-6"><path stroke-linecap="round" stroke-linejoin="round" d="M12 9v3.75m-9.303 3.376c-.866 1.5.217 3.374 1.948 3.374h14.71c1.73 0 2.813-1.874 1.948-3.374L13.949 3.378c-.866-1.5-3.032-1.5-3.898 0zM12 15.75h.007v.008H12z"/></symbol><symbol id="icon-folder-arrow-down" viewBox="0 0 24 24" xmlns="http://www.w3.org/2000/svg" fill="none" stroke="currentColor" stroke-width="1.5" class="size-6"><path stroke-linecap="round" stroke-linejoin="round" d="m9 13.5 3 3m0 0 3-3m-3 3v-6m1.06-4.19-2.12-2.12a1.5 1.5 0 0 0-1.061-.44H4.5A2.25 2.25 0 0 0 2.25 6v12a2.25 2.25 0 0 0 2.25 2.25h15A2.25 2.25 0 0 0 21.75 18V9a2.25 2.25 0 0 0-2.25-2.25h-5.379a1.5 1.5 0 0 1-1.06-.44Z"/></symbol><symbol id="icon-heart" viewBox="0 0 24 24" xmlns="http://www.w3.org/2000/svg" fill="none" stroke="currentColor" stroke-width="1.5" class="size-6"><path stroke-linecap="round" stroke-linejoin="round" d="M21 8.25c0-2.485-2.099-4.5-4.688-4.5-1.935 0-3.597 1.126-4.312 2.733-.715-1.607-2.377-2.733-4.313-2.733C5.1 3.75 3 5.765 3 8.25c0 7.22 9 12 9 12s9-4.78 9-12"/></symbol><symbol id="icon-home" viewBox="0 0 24 24" xmlns="http://www.w3.org/2000/svg" fill="none" stroke="currentColor" stroke-width="1.5" class="size-6"><path stroke-linecap="round" stroke-linejoin="round" d="m2.25 12 8.954-8.955a1.126 1.126 0 0 1 1.591 0L21.75 12M4.5 9.75v10.125c0 .621.504 1.125 1.125 1.125H9.75v-4.875c0-.621.504-1.125 1.125-1.125h2.25c.621 0 1.125.504 1.125 1.125V21h4.125c.621 0 1.125-.504 1.125-1.125V9.75M8.25 21h8.25"/></symbol><symbol id="icon-information-circle" viewBox="0 0 24 24" xmlns="http://www.w3.org/2000/svg" fill="none" stroke="currentColor" stroke-width="1.5" class="size-6"><path stroke-linecap="round" stroke-linejoin="round" d="m11.25 11.25.041-.02a.75.75 0 0 1 1.063.852l-.708 2.836a.75.75 0 0 0 1.063.853l.041-.021M21 12a9 9 0 1 1-18 0 9 9 0 0 1 18 0m-9-3.75h.008v.008H12z"/></symbol><symbol id="icon-magnifying-glass" viewBox="0 0 24 24" xmlns="http://www.w3.org/2000/svg" fill="none" stroke="currentColor" stroke-width="1.5" class="size-6"><path stroke-linecap="round" stroke-linejoin="round" d="m21 21-5.197-5.197m0 0A7.5 7.5 0 1 0 5.196 5.196a7.5 7.5 0 0 0 10.607 10.607"/></symbol><symbol id="icon-map-pin" viewBox="0 0 24 24" xmlns="http://www.w3.org/2000/svg" fill="none" stroke="currentColor" stroke-width="1.5" class="size-6"><path stroke-linecap="round" stroke-linejoin="round" d="M15 10.5a3 3 0 1 1-6 0 3 3 0 0 1 6 0"/><path stroke-linecap="round" stroke-linejoin="round" d="M19.5 10.5c0 7.142-7.5 11.25-7.5 11.25S4.5 17.642 4.5 10.5a7.5 7.5 0 1 1 15 0"/></symbol><symbol id="icon-paper-airplane" viewBox="0 0 24 24" xmlns="http://www.w3.org/2000/svg" fill="none" stroke="currentColor" stroke-width="1.5" class="size-6"><path stroke-linecap="round" stroke-linejoin="round" d="M6 12 3.269 3.125A59.8 59.8 0 0 1 21.485 12 59.8 59.8 0 0 1 3.27 20.875L5.999 12Zm0 0h7.5"/></symbol><symbol id="icon-phone" viewBox="0 0 24 24" xmlns="http://www.w3.org/2000/svg" fill="none" stroke="currentColor" stroke-width="1.5" class="size-6"><path stroke-linecap="round" stroke-linejoin="round" d="M2.25 6.75c0 8.284 6.716 15 15 15h2.25a2.25 2.25 0 0 0 2.25-2.25v-1.372c0-.516-.351-.966-.852-1.091l-4.423-1.106c-.44-.11-.902.055-1.173.417l-.97 1.293c-.282.376-.769.542-1.21.38a12.04 12.04 0 0 1-7.143-7.143c-.162-.441.004-.928.38-1.21l1.293-.97c.363-.271.527-.734.417-1.173L6.963 3.102a1.125 1.125 0 0 0-1.091-.852H4.5A2.25 2.25 0 0 0 2.25 4.5z"/></symbol><symbol id="icon-play" viewBox="0 0 24 24" xmlns="http://www.w3.org/2000/svg" fill="none" stroke="currentColor" stroke-width="1.5" class="size-6"><path stroke-linecap="round" stroke-linejoin="round" d="M5.25 5.653c0-.856.917-1.398 1.667-.986l11.54 6.347a1.125 1.125 0 0 1 0 1.972l-11.54 6.347a1.125 1.125 0 0 1-1.667-.986z"/></symbol><symbol id="icon-plus" viewBox="0 0 24 24" xmlns="http://www.w3.org/2000/svg" fill="none" stroke="currentColor" stroke-width="1.5" class="size-6"><path stroke-linecap="round" stroke-linejoin="round" d="M12 4.5v15m7.5-7.5h-15"/></symbol><symbol id="icon-shopping-bag" viewBox="0 0 24 24" xmlns="http://www.w3.org/2000/svg" fill="none" stroke="currentColor" stroke-width="1.5" class="size-6"><path stroke-linecap="round" stroke-linejoin="round" d="M15.75 10.5V6a3.75 3.75 0 1 0-7.5 0v4.5m11.356-1.993 1.263 12c.07.665-.45 1.243-1.119 1.243H4.25a1.125 1.125 0 0 1-1.12-1.243l1.264-12A1.125 1.125 0 0 1 5.513 7.5h12.974c.576 0 1.059.435 1.119 1.007M8.625 10.5a.375.375 0 1 1-.75 0 .375.375 0 0 1 .75 0m7.5 0a.375.375 0 1 1-.75 0 .375.375 0 0 1 .75 0"/></symbol><symbol id="icon-shopping-cart" viewBox="0 0 24 24" xmlns="http://www.w3.org/2000/svg" fill="none" stroke="currentColor" stroke-width="1.5" class="size-6"><path stroke-linecap="round" stroke-linejoin="round" d="M2.25 3h1.386c.51 0 .955.343 1.087.835l.383 1.437M7.5 14.25a3 3 0 0 0-3 3h15.75m-12.75-3h11.218c1.121-2.3 2.1-4.684 2.924-7.138a60 60 0 0 0-16.536-1.84M7.5 14.25 5.106 5.272M6 20.25a.75.75 0 1 1-1.5 0 .75.75 0 0 1 1.5 0m12.75 0a.75.75 0 1 1-1.5 0 .75.75 0 0 1 1.5 0"/></symbol><symbol id="icon-star" viewBox="0 0 24 24" xmlns="http://www.w3.org/2000/svg" fill="none" stroke="currentColor" stroke-width="1.5" class="size-6"><path stroke-linecap="round" stroke-linejoin="round" d="M11.48 3.499a.562.562 0 0 1 1.04 0l2.125 5.111a.56.56 0 0 0 .475.345l5.518.442c.499.04.701.663.321.988l-4.204 3.602a.56.56 0 0 0-.182.557l1.285 5.385a.562.562 0 0 1-.84.61l-4.725-2.885a.56.56 0 0 0-.586 0L6.982 20.54a.562.562 0 0 1-.84-.61l1.285-5.386a.56.56 0 0 0-.182-.557l-4.204-3.602a.562.562 0 0 1 .321-.988l5.518-.442a.56.56 0 0 0 .475-.345z"/></symbol><symbol id="icon-truck" viewBox="0 0 24 24" xmlns="http://www.w3.org/2000/svg" fill="none" stroke="currentColor" stroke-width="1.5" class="size-6"><path stroke-linecap="round" stroke-linejoin="round" d="M8.25 18.75a1.5 1.5 0 0 1-3 0m3 0a1.5 1.5 0 0 0-3 0m3 0h6m-9 0H3.375a1.125 1.125 0 0 1-1.125-1.125V14.25m17.25 4.5a1.5 1.5 0 0 1-3 0m3 0a1.5 1.5 0 0 0-3 0m3 0h1.125c.621 0 1.129-.504 1.09-1.124a17.9 17.9 0 0 0-3.213-9.193 2.06 2.06 0 0 0-1.58-.86H14.25M16.5 18.75h-2.25m0-11.177v-.958c0-.568-.422-1.048-.987-1.106a48.6 48.6 0 0 0-10.026 0 1.106 1.106 0 0 0-.987 1.106v7.635m12-6.677v6.677m0 4.5v-4.5m0 0h-12"/></symbol><symbol id="icon-user-circle" viewBox="0 0 24 24" xmlns="http://www.w3.org/2000/svg" fill="none" stroke="currentColor" stroke-width="1.5" class="size-6"><path stroke-linecap="round" stroke-linejoin="round" d="M17.982 18.725A7.49 7.49 0 0 0 12 15.75a7.49 7.49 0 0 0-5.982 2.975m11.963 0a9 9 0 1 0-11.963 0m11.963 0A8.97 8.97 0 0 1 12 21a8.97 8.97 0 0 1-5.982-2.275M15 9.75a3 3 0 1 1-6 0 3 3 0 0 1 6 0"/></symbol><symbol id="icon-user" viewBox="0 0 24 24" xmlns="http://www.w3.org/2000/svg" fill="none" stroke="currentColor" stroke-width="1.5" class="size-6"><path stroke-linecap="round" stroke-linejoin="round" d="M15.75 6a3.75 3.75 0 1 1-7.5 0 3.75 3.75 0 0 1 7.5 0M4.501 20.118a7.5 7.5 0 0 1 14.998 0A17.9 17.9 0 0 1 12 21.75c-2.676 0-5.216-.584-7.499-1.632"/></symbol><symbol id="icon-wallet" viewBox="0 0 24 24" xmlns="http://www.w3.org/2000/svg" fill="none" stroke="currentColor" stroke-width="1.5" class="size-6"><path stroke-linecap="round" stroke-linejoin="round" d="M21 12a2.25 2.25 0 0 0-2.25-2.25H15a3 3 0 1 1-6 0H5.25A2.25 2.25 0 0 0 3 12m18 0v6a2.25 2.25 0 0 1-2.25 2.25H5.25A2.25 2.25 0 0 1 3 18v-6m18 0V9M3 12V9m18 0a2.25 2.25 0 0 0-2.25-2.25H5.25A2.25 2.25 0 0 0 3 9m18 0V6a2.25 2.25 0 0 0-2.25-2.25H5.25A2.25 2.25 0 0 0 3 6v3"/></symbol><symbol id="icon-x-mark" viewBox="0 0 24 24" xmlns="http://www.w3.org/2000/svg" fill="none" stroke="currentColor" stroke-width="1.5" class="size-6"><path stroke-linecap="round" stroke-linejoin="round" d="M6 18 18 6M6 6l12 12"/></symbol></svg>
